HIERARCHY
ROOT Hips
{
	OFFSET 0.00000 0.00000 0.00000
	CHANNELS 6 Xposition Yposition Zposition Zrotation Yrotation Xrotation 
	JOINT LHipJoint
	{
		OFFSET 0 0 0
		CHANNELS 3 Zrotation Yrotation Xrotation
		JOINT LeftUpLeg
		{
			OFFSET 1.75344 -1.53157 0.77399
			CHANNELS 3 Zrotation Yrotation Xrotation
			JOINT LeftLeg
			{
				OFFSET 2.25415 -6.19323 0.00000
				CHANNELS 3 Zrotation Yrotation Xrotation
				JOINT LeftFoot
				{
					OFFSET 2.30342 -6.32861 0.00000
					CHANNELS 3 Zrotation Yrotation Xrotation
					JOINT LeftToeBase
					{
						OFFSET 0.10958 -0.30108 1.49206
						CHANNELS 3 Zrotation Yrotation Xrotation
						End Site
						{
							OFFSET 0.00000 -0.00000 0.77783
						}
					}
				}
			}
		}
	}
	JOINT RHipJoint
	{
		OFFSET 0 0 0
		CHANNELS 3 Zrotation Yrotation Xrotation
		JOINT RightUpLeg
		{
			OFFSET -1.81912 -1.53156 0.77399
			CHANNELS 3 Zrotation Yrotation Xrotation
			JOINT RightLeg
			{
				OFFSET -2.22882 -6.12365 0.00000
				CHANNELS 3 Zrotation Yrotation Xrotation
				JOINT RightFoot
				{
					OFFSET -2.21943 -6.09785 0.00000
					CHANNELS 3 Zrotation Yrotation Xrotation
					JOINT RightToeBase
					{
						OFFSET -0.18931 -0.52012 1.59379
						CHANNELS 3 Zrotation Yrotation Xrotation
						End Site
						{
							OFFSET -0.00000 -0.00000 0.84686
						}
					}
				}
			}
		}
	}
	JOINT LowerBack
	{
		OFFSET 0 0 0
		CHANNELS 3 Zrotation Yrotation Xrotation
		JOINT Spine
		{
			OFFSET -0.00200 1.66634 -0.14248
			CHANNELS 3 Zrotation Yrotation Xrotation
			JOINT Spine1
			{
				OFFSET -0.00875 1.64542 0.09514
				CHANNELS 3 Zrotation Yrotation Xrotation
				JOINT Neck
				{
					OFFSET 0 0 0
					CHANNELS 3 Zrotation Yrotation Xrotation
					JOINT Neck1
					{
						OFFSET 0.02257 1.59605 0.00839
						CHANNELS 3 Zrotation Yrotation Xrotation
						JOINT Head
						{
							OFFSET -0.10214 1.57530 -0.23335
							CHANNELS 3 Zrotation Yrotation Xrotation
							End Site
							{
								OFFSET -0.03588 1.60717 -0.08062
							}
						}
					}
				}
				JOINT LeftShoulder
				{
					OFFSET 0 0 0
					CHANNELS 3 Zrotation Yrotation Xrotation
					JOINT LeftArm
					{
						OFFSET 2.54983 1.10186 0.40078
						CHANNELS 3 Zrotation Yrotation Xrotation
						JOINT LeftForeArm
						{
							OFFSET 4.28840 -0.00000 0.00000
							CHANNELS 3 Zrotation Yrotation Xrotation
							JOINT LeftHand
							{
								OFFSET 3.06552 -0.00000 -0.00000
								CHANNELS 3 Zrotation Yrotation Xrotation
								JOINT LeftFingerBase
								{
									OFFSET 0 0 0
									CHANNELS 3 Zrotation Yrotation Xrotation
									JOINT LeftHandIndex1
									{
										OFFSET 0.75304 -0.00000 0.00000
										CHANNELS 3 Zrotation Yrotation Xrotation
										End Site
										{
											OFFSET 0.60712 -0.00000 0.00000
										}
									}
								}
								JOINT LThumb
								{
									OFFSET 0 0 0
									CHANNELS 3 Zrotation Yrotation Xrotation
									End Site
									{
										OFFSET 0.61639 -0.00000 0.61639
									}
								}
							}
						}
					}
				}
				JOINT RightShoulder
				{
					OFFSET 0 0 0
					CHANNELS 3 Zrotation Yrotation Xrotation
					JOINT RightArm
					{
						OFFSET -2.60909 1.35448 0.21802
						CHANNELS 3 Zrotation Yrotation Xrotation
						JOINT RightForeArm
						{
							OFFSET -4.52172 -0.00000 -0.00000
							CHANNELS 3 Zrotation Yrotation Xrotation
							JOINT RightHand
							{
								OFFSET -2.89140 -0.00000 0.00000
								CHANNELS 3 Zrotation Yrotation Xrotation
								JOINT RightFingerBase
								{
									OFFSET 0 0 0
									CHANNELS 3 Zrotation Yrotation Xrotation
									JOINT RightHandIndex1
									{
										OFFSET -0.68054 -0.00000 0.00000
										CHANNELS 3 Zrotation Yrotation Xrotation
										End Site
										{
											OFFSET -0.54867 -0.00000 0.00000
										}
									}
								}
								JOINT RThumb
								{
									OFFSET 0 0 0
									CHANNELS 3 Zrotation Yrotation Xrotation
									End Site
									{
										OFFSET -0.55705 -0.00000 0.55705
									}
								}
							}
						}
					}
				}
			}
		}
	}
}
MOTION
Frames: 12
Frame Time: .0083333
8.1498 15.1321 42.2394 0 0 0 0 0 0 -21 0 0 0 0 0 0 0 0 0 0 0 0 0 0 21 0 0 0 0 0 0 0 0 0 0 0 0 0 0 0 0 0 0 0 0 0 0 -16 0 0 21 0 0 11 0 0 0 -8 0 0 0 0 0 0 0 0 0 0 0 0 0 0 0 0 0 0 0 0 8 0 0 0 0 0 0 0 0 0 0 0 0 0 0 0 0 0
8.1498 15.1321 42.2394 -179.0740 2.7365 -179.3980 0.0000 0.0000 0.0000 -27.9919 -22.3554 -0.9574 2.4235 9.6975 28.0027 1.7635 14.4091 -33.7775 0.0002 -0.0884 -0.2429 0.0000 0.0000 0.0000 26.4662 18.3681 -1.0540 -2.2295 -9.3286 26.8289 -1.4756 -16.8418 -34.2642 -0.9472 -6.1981 17.3604 0.4100 1.5180 6.4035 -0.0923 2.1162 -3.5968 -0.5971 1.0361 -7.3449 -5.0199 -2.0969 -3.4176 5.2736 -3.0857 7.8806 2.5149 -1.5623 3.3580 0.0000 0.0000 0.0000 -86.1591 12.9653 27.3884 19.3301 -29.8268 -5.1940 -0.0000 -0.0000 14.9929 6.5824 -34.2844 -3.7191 -7.1250 0.0000 -0.0000 -14.2804 -3.5474 15.6174 0.0000 0.0000 0.0000 85.8881 -11.8886 44.9909 -18.6724 29.0096 -4.8709 0.0000 0.0000 15.4863 -0.4691 -55.6475 0.3873 7.1250 -0.0000 -0.0000 80.2653 -72.1203 -61.2707
8.1415 15.1339 42.2275 -178.8150 2.1648 -179.3500 0.0000 0.0000 0.0000 -27.6808 -22.4223 -1.1085 2.4642 9.7726 28.2434 1.7649 14.1181 -33.5463 0.0961 -1.9995 -5.5043 0.0000 0.0000 0.0000 26.7810 18.1620 -0.8387 -2.1729 -9.2174 26.4777 -1.4246 -17.3366 -34.4381 -0.9136 -6.0905 17.0472 0.7125 1.3516 6.2771 -0.0408 1.9246 -3.5701 -0.6844 0.9298 -7.2371 -5.0056 -2.0993 -3.3949 5.3612 -3.0868 7.7179 2.5410 -1.5575 3.2997 0.0000 -0.0000 0.0000 -86.1448 13.1551 27.2603 19.2866 -29.7732 -5.1724 -0.0000 -0.0000 15.4064 7.0651 -34.6944 -4.0352 -7.1250 0.0000 -0.0000 -14.0446 -4.0029 15.4487 0.0000 -0.0000 0.0000 86.1427 -11.8425 44.3695 -18.7067 29.0525 -4.8876 0.0000 0.0000 15.7661 -0.6075 -55.3895 0.5000 7.1250 -0.0000 -0.0000 79.4270 -72.1245 -60.4529
8.1307 15.1360 42.2200 -178.6330 2.3964 -179.1000 0.0000 0.0000 0.0000 -27.4895 -22.5908 -1.2884 2.4683 9.7801 28.2675 1.8093 14.1162 -33.8001 0.2917 -3.4733 -9.5995 0.0000 0.0000 0.0000 26.8390 18.3498 -1.0685 -2.1669 -9.2054 26.4400 -1.3636 -17.4499 -34.1994 -0.8466 -5.8685 16.4032 0.9925 1.4243 6.0656 -0.0294 2.0532 -3.6509 -0.8404 0.9825 -7.1898 -5.2536 -2.0306 -3.3117 5.6780 -3.0025 7.5871 2.6992 -1.5134 3.2493 -0.0000 -0.0000 0.0000 -86.0392 13.5488 27.4748 19.3634 -29.8677 -5.2106 -0.0000 -0.0000 15.5822 7.8020 -34.8701 -4.4792 -7.1250 0.0000 -0.0000 -13.6590 -4.2669 15.0584 -0.0000 -0.0000 0.0000 86.3964 -11.8549 43.8558 -18.7364 29.0898 -4.9020 0.0000 0.0000 16.0516 -1.5566 -54.2946 1.2641 7.1250 -0.0000 -0.0000 75.7064 -72.2330 -56.9902
8.1190 15.1312 42.2090 -178.7010 2.2887 -179.1560 0.0000 0.0000 0.0000 -27.7160 -22.7665 -1.0971 2.4724 9.7876 28.2917 1.8014 14.2251 -33.8433 1.0929 -6.6435 -18.6633 0.0000 0.0000 0.0000 26.7795 18.4247 -0.9054 -2.1614 -9.1945 26.4056 -1.3405 -17.6907 -34.2994 -0.8410 -5.8496 16.3487 0.9963 1.3875 6.1043 -0.0509 2.0026 -3.6461 -0.8600 0.9563 -7.2073 -5.3542 -2.0134 -3.1767 5.7486 -2.9762 7.4418 2.7425 -1.5017 3.1765 0.0000 0.0000 0.0000 -85.9982 13.8651 27.7236 19.3892 -29.8994 -5.2234 -0.0000 -0.0000 15.7006 8.0419 -34.5133 -4.5769 -7.1250 0.0000 -0.0000 -13.5049 -3.9524 14.8093 0.0000 0.0000 0.0000 86.4815 -11.9323 43.6415 -18.8202 29.1946 -4.9428 0.0000 0.0000 16.1251 -1.9852 -53.6466 1.5990 7.1250 -0.0000 -0.0000 73.5481 -72.2228 -54.9382
8.1074 15.1334 42.2020 -178.8180 2.8490 -178.9450 0.0000 0.0000 0.0000 -27.8723 -22.7443 -1.3013 2.4761 9.7943 28.3130 1.8009 14.5962 -34.1450 1.1170 -6.7141 -18.8711 0.0000 0.0000 0.0000 26.4751 18.6620 -1.1421 -2.1623 -9.1962 26.4111 -1.3035 -17.5176 -33.9196 -0.7774 -5.6292 15.7124 0.7482 1.6165 5.9849 -0.0496 2.2915 -3.7360 -0.7528 1.1122 -7.2379 -5.1721 -2.0639 -3.1412 5.4764 -3.0307 7.4190 2.6122 -1.5313 3.1528 -0.0000 -0.0000 0.0000 -86.0223 14.0491 27.8846 19.3511 -29.8527 -5.2045 -0.0000 -0.0000 15.7774 8.0242 -34.1896 -4.5293 -7.1250 0.0000 -0.0000 -13.4925 -3.6364 14.7247 -0.0000 -0.0000 0.0000 86.5027 -12.1161 43.3842 -19.0138 29.4358 -5.0376 0.0000 0.0000 16.2084 -1.1662 -54.0488 0.9441 7.1250 -0.0000 -0.0000 75.1386 -72.0360 -56.2152
8.0980 15.1306 42.1882 -178.8330 2.6592 -179.0320 0.0000 0.0000 0.0000 -27.9577 -22.6406 -1.1658 2.4684 9.7803 28.2681 1.8094 14.4817 -34.0987 1.1323 -6.7582 -19.0009 0.0000 0.0000 0.0000 26.5081 18.6428 -0.9812 -2.1775 -9.2264 26.5063 -1.3295 -17.6047 -34.1534 -0.8129 -5.7536 16.0712 0.6336 1.6090 6.0814 -0.0087 2.2742 -3.7445 -0.6473 1.1097 -7.3093 -5.0680 -2.0971 -3.1955 5.2924 -3.0672 7.4985 2.5286 -1.5515 3.1846 -0.0000 -0.0000 0.0000 -86.0927 14.2534 27.9364 19.2928 -29.7808 -5.1755 -0.0000 -0.0000 15.9080 8.4959 -34.2206 -4.8020 -7.1250 0.0000 -0.0000 -13.2381 -3.7283 14.4518 -0.0000 -0.0000 0.0000 86.5334 -12.3352 42.9716 -19.1929 29.6576 -5.1259 0.0000 0.0000 16.3739 -0.6168 -54.1473 0.4999 7.1250 -0.0000 -0.0000 75.6820 -71.8664 -56.5281
8.0827 15.1265 42.1772 -178.6090 2.2798 -179.0840 0.0000 0.0000 0.0000 -27.7681 -22.6067 -1.0970 2.4630 9.7703 28.2361 1.8095 14.1942 -33.8647 1.1264 -6.7411 -18.9507 0.0000 0.0000 0.0000 26.7491 18.4402 -0.9531 -2.1935 -9.2580 26.6059 -1.3107 -17.8500 -34.2844 -0.8081 -5.7370 16.0231 0.9222 1.5024 6.2398 0.0596 2.1662 -3.7836 -0.7301 1.0432 -7.4367 -5.0909 -2.1049 -3.1748 5.3035 -3.0748 7.4536 2.5361 -1.5551 3.1667 -0.0000 -0.0000 0.0000 -86.1624 14.5799 28.0096 19.3146 -29.8077 -5.1863 -0.0000 -0.0000 16.0126 8.7544 -34.1199 -4.9369 -7.1250 0.0000 -0.0000 -13.0903 -3.6651 14.2680 -0.0000 -0.0000 0.0000 86.5509 -12.4810 42.6699 -19.2830 29.7688 -5.1706 0.0000 0.0000 16.5109 -0.4583 -54.0691 0.3711 7.1250 -0.0000 -0.0000 75.5235 -71.7916 -56.2874
8.0677 15.1224 42.1639 -178.8610 1.9352 -179.2510 0.0000 0.0000 0.0000 -28.1769 -22.5804 -0.8514 2.4586 9.7622 28.2100 1.8322 13.8517 -33.7176 1.0918 -6.6403 -18.6539 0.0000 0.0000 0.0000 26.4569 18.0215 -0.8819 -2.2098 -9.2901 26.7071 -1.3100 -17.9644 -34.3924 -0.7339 -5.4733 15.2635 0.6398 1.4147 6.4144 0.0713 2.0203 -3.7477 -0.5460 0.9841 -7.5119 -5.1157 -2.1083 -3.1780 5.1662 -3.0563 7.3638 2.4938 -1.5479 3.1322 -0.0000 -0.0000 0.0000 -86.2896 14.8746 28.2728 19.3848 -29.8940 -5.2212 -0.0000 -0.0000 15.7555 7.9971 -33.6593 -4.4524 -7.1250 0.0000 -0.0000 -13.4725 -3.1186 14.5858 -0.0000 -0.0000 0.0000 86.4372 -12.5667 42.4864 -19.3612 29.8650 -5.2095 0.0000 0.0000 16.5761 -0.2026 -54.2185 0.1644 7.1250 -0.0000 -0.0000 76.0802 -71.7380 -56.7530
8.0537 15.1212 42.1546 -178.9170 1.8272 -179.2930 0.0000 0.0000 0.0000 -28.3346 -22.6086 -0.7463 2.4589 9.7628 28.2120 1.8488 13.7583 -33.7384 1.0093 -6.3924 -17.9272 0.0000 0.0000 0.0000 26.2888 17.6788 -0.9848 -2.2267 -9.3232 26.8115 -1.3572 -17.7112 -34.4139 -0.7078 -5.3771 14.9873 0.7384 1.3513 6.3618 0.0282 1.9351 -3.6291 -0.6315 0.9355 -7.3507 -5.2091 -2.0730 -3.2473 5.2105 -2.9825 7.1287 2.5274 -1.5061 3.0643 0.0000 0.0000 0.0000 -86.3702 14.8306 28.1799 19.4468 -29.9700 -5.2522 -0.0000 -0.0000 15.0573 5.7091 -32.8757 -3.1063 -7.1250 0.0000 -0.0000 -14.6841 -2.0855 15.7270 0.0000 0.0000 0.0000 86.4649 -12.3961 42.3277 -19.3890 29.8992 -5.2234 0.0000 0.0000 16.6328 -0.7110 -53.5947 0.5722 7.1250 -0.0000 -0.0000 74.0098 -71.7582 -54.8166
8.0404 15.1203 42.1484 -178.9160 1.9810 -179.2270 0.0000 0.0000 0.0000 -28.3717 -22.5154 -0.8121 2.4543 9.7543 28.1847 1.8448 13.8994 -33.8283 1.0348 -6.4703 -18.1552 0.0000 0.0000 0.0000 26.1070 17.4961 -1.2585 -2.2534 -9.3750 26.9755 -1.4137 -17.2676 -34.3109 -0.7242 -5.4377 15.1612 0.7598 1.3746 6.3033 0.0403 1.9663 -3.5767 -0.6320 0.9502 -7.2601 -5.4066 -2.0322 -3.3628 5.4419 -2.9150 6.9748 2.6450 -1.4660 3.0412 0.0000 0.0000 0.0000 -86.5787 14.9954 28.0121 19.3893 -29.8996 -5.2235 -0.0000 -0.0000 15.6978 6.8025 -33.1015 -3.7273 -7.1250 0.0000 -0.0000 -14.0947 -2.4302 15.1375 0.0000 0.0000 0.0000 86.4844 -12.1658 42.0592 -19.3343 29.8320 -5.1961 0.0000 0.0000 16.7047 -1.2126 -52.8719 0.9668 7.1250 -0.0000 -0.0000 71.6512 -71.7275 -52.5840
8.0264 15.1181 42.1429 -178.8920 2.2198 -179.1010 0.0000 0.0000 0.0000 -28.4103 -22.6169 -0.8832 2.4601 9.7650 28.2192 1.8960 13.9579 -34.1656 1.0693 -6.5738 -18.4588 0.0000 0.0000 0.0000 25.9235 17.3218 -1.6247 -2.2784 -9.4234 27.1288 -1.4252 -16.9307 -34.0591 -0.6797 -5.2713 14.6840 0.7718 1.4582 6.2835 0.0221 2.0792 -3.5982 -0.6716 1.0049 -7.2690 -5.2963 -2.0259 -3.5288 5.4847 -2.9079 6.9855 2.6392 -1.4553 3.0742 0.0000 -0.0000 0.0000 -86.6394 15.2743 27.9767 19.6105 -30.1702 -5.3342 -0.0000 -0.0000 15.2104 5.6508 -33.1822 -3.0998 -7.1250 0.0000 -0.0000 -14.7299 -2.3747 15.8522 0.0000 -0.0000 0.0000 86.6318 -12.0107 41.6149 -19.3050 29.7959 -5.1816 0.0000 0.0000 16.7191 -1.1155 -53.0720 0.8917 7.1250 -0.0000 -0.0000 72.2818 -71.7532 -53.1980
